<svg xmlns="http://www.w3.org/2000/svg" viewBox="0 0 340 78" role="img" aria-label="Frankgina Company Limited">
  <g transform="translate(4 6)">
    <path d="M32 2c0 0 14 15 14 24a14 14 0 0 1-28 0C18 17 32 2 32 2z" fill="#E0B71C"/>
    <circle cx="28" cy="27" r="4.6" fill="#0B0B0C"/>
    <circle cx="38" cy="21" r="2.6" fill="#0B0B0C"/>
    <path d="M6 56c4-8 10-12 18-13 6-.9 12-3.6 19-5.4 11-2.8 23-2.4 33 1.8 6 2.6 11 6 18 7.2 6 1 11 2.8 14.5 5.4 1.8 1.3 1.2 3.2-1.2 3.5-8.4.8-18 1-27.6.8-18-.2-37-.1-55 .2-4.8.1-6.6-1.4-5.4-4 1.2-2.4 3.6-3.8 6.6-4.4Z" fill="#0B0B0C"/>
    <path d="M2 66h116" stroke="#0B0B0C" stroke-width="3.4" stroke-linecap="round"/>
    <path d="M18 70h96" stroke="#E0B71C" stroke-width="2.6" stroke-linecap="round"/>
  </g>
  <text x="138" y="40" font-family="Nunito, Segoe UI, Arial, sans-serif" font-size="30" font-weight="900"
        letter-spacing="-.2" fill="#0B0B0C">FRANKGINA</text>
  <text x="140" y="60" font-family="Nunito, Segoe UI, Arial, sans-serif" font-size="10.5" font-weight="700"
        letter-spacing="3.4" fill="#6B6B72">COMPANY LIMITED</text>
</svg>